<svg xmlns="http://www.w3.org/2000/svg" width="10.459" height="13.02" viewBox="0 0 10.459 13.02"><path d="M148.226-890.591a1.145,1.145,0,0,0,.834-.345,1.126,1.126,0,0,0,.349-.83,1.145,1.145,0,0,0-.345-.834,1.126,1.126,0,0,0-.83-.349,1.145,1.145,0,0,0-.834.345,1.126,1.126,0,0,0-.349.83,1.145,1.145,0,0,0,.345.834A1.126,1.126,0,0,0,148.226-890.591Zm0,4.687a17.1,17.1,0,0,0,2.85-3.218,4.9,4.9,0,0,0,.921-2.528,3.789,3.789,0,0,0-1.091-2.8,3.641,3.641,0,0,0-2.676-1.09,3.65,3.65,0,0,0-2.68,1.091,3.787,3.787,0,0,0-1.094,2.8,4.791,4.791,0,0,0,.944,2.524A19.122,19.122,0,0,0,148.23-885.9Zm0,1.924a22.081,22.081,0,0,1-3.926-4.144,6.383,6.383,0,0,1-1.3-3.525,5.044,5.044,0,0,1,1.577-3.9A5.226,5.226,0,0,1,148.228-897a5.231,5.231,0,0,1,3.653,1.452,5.042,5.042,0,0,1,1.578,3.9,6.383,6.383,0,0,1-1.3,3.525A22.081,22.081,0,0,1,148.23-883.98ZM148.23-891.646Z" transform="translate(-143 897)" opacity="0.503"/></svg>