<svg xmlns="http://www.w3.org/2000/svg" width="59.425" height="59.425" viewBox="0 0 59.425 59.425"><g transform="translate(-37.56 -37.56)"><path d="M137.682,156.723a19.052,19.052,0,1,1,19.052-19.052A19.073,19.073,0,0,1,137.682,156.723Zm0-36.988a17.937,17.937,0,1,0,17.937,17.937A17.957,17.957,0,0,0,137.682,119.735Z" transform="translate(-70.409 -70.401)" fill="#19105f"/><path d="M105.076,108.028l1.468,1.136a3.494,3.494,0,0,1,.8.844,2.435,2.435,0,0,1,.373.91,2.107,2.107,0,0,1-.042.919,2.481,2.481,0,0,1-.443.869l-.008.011a2.476,2.476,0,0,1-.738.65,2.16,2.16,0,0,1-.893.277,2.473,2.473,0,0,1-.992-.129,3.429,3.429,0,0,1-1.027-.565l-1.445-1.119,2.947-3.8Zm-.738,4.02a1.429,1.429,0,0,0,.957.342,1.124,1.124,0,0,0,.84-.488l.008-.01a1.131,1.131,0,0,0,.26-.934,1.408,1.408,0,0,0-.568-.844l-.431-.334-1.5,1.934.431.334Zm5.627-.559,3.574,1.466L113.108,114l-2.359-.968-.276.675,2.137.877-.4.973-2.137-.877-.289.706,2.391.981-.43,1.049-3.606-1.479,1.827-4.451Zm4.606,1.813,1.481.178.723,3.153,1.448-2.893,1.454.175-2.516,4.58-1.228-.147-1.361-5.044Zm7.922.241,1.268-.212,2.818,4.443-1.411.235-.488-.79-1.83.305-.2.9-1.383.231,1.223-5.118Zm1.64,2.723L123.378,115l-.31,1.439Zm2.783-3.725,1.21-.56,1.531,3.306,2.115-.978.491,1.061-3.326,1.539-2.021-4.367Zm4.482-2.295,1.043-.831,2.271,2.848,1.823-1.453.729.914-2.865,2.284-3-3.762ZM102.49,80.853a3.755,3.755,0,0,1-.863.9,2.993,2.993,0,0,1-1.08.5l-.309-1.116a2.452,2.452,0,0,0,1.362-.956.8.8,0,0,0,.162-.385.269.269,0,0,0-.121-.254l-.012-.008a.246.246,0,0,0-.129-.047.36.36,0,0,0-.166.041,1.323,1.323,0,0,0-.229.143,4.105,4.105,0,0,0-.316.271q-.273.25-.567.477a2.173,2.173,0,0,1-.552.316,1.17,1.17,0,0,1-1.153-.158l-.012-.008a1.464,1.464,0,0,1-.435-.456,1.355,1.355,0,0,1-.189-.583,1.76,1.76,0,0,1,.071-.665,2.483,2.483,0,0,1,.348-.7,3.434,3.434,0,0,1,.761-.815,2.8,2.8,0,0,1,.894-.448l.4,1.086a2.663,2.663,0,0,0-.676.356,2.06,2.06,0,0,0-.48.483.6.6,0,0,0-.132.347.263.263,0,0,0,.112.224l.012.008a.267.267,0,0,0,.139.051.339.339,0,0,0,.167-.043,1.432,1.432,0,0,0,.229-.151c.089-.07.2-.16.32-.276a5.849,5.849,0,0,1,.6-.494,2.248,2.248,0,0,1,.563-.3,1.16,1.16,0,0,1,.544-.058,1.269,1.269,0,0,1,.547.228l.012.008a1.467,1.467,0,0,1,.462.491,1.406,1.406,0,0,1,.179.6,1.808,1.808,0,0,1-.093.679,2.8,2.8,0,0,1-.366.717Zm3.853-4.167a2.679,2.679,0,0,1-.919.506,2.521,2.521,0,0,1-.97.11,2.457,2.457,0,0,1-1.688-.888l-.009-.011a2.447,2.447,0,0,1-.556-1.837,2.6,2.6,0,0,1,.295-.939,2.808,2.808,0,0,1,1.589-1.315,2.521,2.521,0,0,1,.97-.11,2.457,2.457,0,0,1,1.688.888l.009.011a2.448,2.448,0,0,1,.556,1.837,2.6,2.6,0,0,1-.295.939A2.684,2.684,0,0,1,106.343,76.686Zm-.759-.934a1.2,1.2,0,0,0,.322-.4,1.145,1.145,0,0,0,.12-.46,1.29,1.29,0,0,0-.07-.473,1.413,1.413,0,0,0-.246-.439l-.009-.011a1.388,1.388,0,0,0-.384-.325,1.275,1.275,0,0,0-.459-.155,1.257,1.257,0,0,0-.484.03,1.247,1.247,0,0,0-.776.636,1.2,1.2,0,0,0-.05.934,1.435,1.435,0,0,0,.249.437l.009.011a1.389,1.389,0,0,0,.384.325,1.328,1.328,0,0,0,.456.158,1.2,1.2,0,0,0,.483-.029,1.168,1.168,0,0,0,.456-.239Zm5.953-2.229a3.045,3.045,0,0,1-.906.239,1.8,1.8,0,0,1-.8-.1,1.777,1.777,0,0,1-.676-.462,2.823,2.823,0,0,1-.523-.843l-1.048-2.491,1.255-.529,1.038,2.464a1.094,1.094,0,0,0,.521.621.847.847,0,0,0,.689-.017.858.858,0,0,0,.5-.471,1.03,1.03,0,0,0-.071-.784l-1.051-2.5,1.255-.529,1.035,2.458a2.828,2.828,0,0,1,.242.991,1.806,1.806,0,0,1-.149.815,1.829,1.829,0,0,1-.5.646,3.084,3.084,0,0,1-.807.481Zm4.242-5.073-1.432.187-.151-1.159,4.186-.546.151,1.159-1.432.187.471,3.612-1.323.172-.471-3.612ZM121,66.93l1.322.18-.243,1.784,1.7.231.243-1.784,1.322.18-.65,4.768-1.322-.18.247-1.812-1.7-.231-.247,1.812-1.322-.18Zm7.117,1.407,3.549,1.525-.448,1.043L128.87,69.9l-.288.669,2.122.911-.416.967-2.122-.913-.3.7,2.375,1.02-.448,1.043-3.581-1.539,1.9-4.421Zm5.9,2.922,1.786,1.41a2.824,2.824,0,0,1,.654.692,1.61,1.61,0,0,1,.252.69,1.486,1.486,0,0,1-.36,1.144l-.009.011a1.511,1.511,0,0,1-.781.556,1.691,1.691,0,0,1-.911-.011l-.138,2.028-1.208-.955.142-1.745-.011-.009-.448-.354-.9,1.144-1.047-.826,2.982-3.777Zm.306,3.185a.807.807,0,0,0,.512.206.512.512,0,0,0,.4-.212l.009-.011a.5.5,0,0,0,.116-.456.877.877,0,0,0-.329-.438l-.685-.54-.715.906.69.546Zm4.942,1.435.729,1.011-.9,3.1,2.065-1.486.768,1.065-3.9,2.813-.685-.951.939-3.214-2.142,1.542-.768-1.065Z" transform="translate(-52.383 -25.508)" fill="#78849d"/><path d="M208.993,169.227v6.158h3.064v-7.891h-3.064Zm8.83,0v6.158h3.064v-7.891h-3.064Zm-8.83-6.159h3.064v-2.5h2.09a3.682,3.682,0,0,1,3.483,2.5h3.155a6.751,6.751,0,0,0-6.638-5.568H207.12v3.064a1.873,1.873,0,0,1,1.873,1.873v.633Zm5.153,19.248h-2.09v-2.5h-3.064v.633a1.873,1.873,0,0,1-1.873,1.873v3.064h7.026a6.751,6.751,0,0,0,6.638-5.568h-3.155a3.681,3.681,0,0,1-3.483,2.5Zm-1.408-12.408h4.4v3.064h-4.4Z" transform="translate(-147.263 -104.168)" fill="#8a2432"/><path d="M191.5,251.85h-1.093v3.064h1.126a1.573,1.573,0,0,1,1.585,1.487,1.55,1.55,0,0,1-1.546,1.607H176.146a1.842,1.842,0,0,1-1.842-1.842v-.03H171.24v4.936h20.329a4.611,4.611,0,1,0-.07-9.222Z" transform="translate(-116.101 -186.111)" fill="#8a2432"/><path d="M170.755,214.242h1.911v-3.064h-1.942a1.573,1.573,0,0,1-1.585-1.487,1.55,1.55,0,0,1,1.546-1.607h15.424a1.842,1.842,0,0,1,1.842,1.842c0,1.018,3.064,0,3.064,0V205.02H170.687a4.611,4.611,0,1,0,.07,9.222Z" transform="translate(-111.616 -145.439)" fill="#8a2432"/><path d="M67.272,37.56A29.712,29.712,0,1,0,96.985,67.272,29.746,29.746,0,0,0,67.272,37.56ZM91.679,74.417a.968.968,0,0,1-.8-1.112l.686-4.165a.968.968,0,0,1,1.909.316l-.686,4.165A.968.968,0,0,1,91.679,74.417ZM41.864,68.343a.968.968,0,0,1,1.112.8l.686,4.165a.968.968,0,0,1-1.909.316l-.686-4.165A.968.968,0,0,1,41.864,68.343Zm25.408,26.9a27.973,27.973,0,0,1-23.417-12.69c-2.347-3.778-1.654-5.929-.476-6.124.988-.163,2.054,1.077,3.72,3.965a1.288,1.288,0,1,0,2.188-1.356A21.485,21.485,0,0,1,46.46,61.9a1.288,1.288,0,1,0-2.508-.583c-.651,3.27-1.262,4.787-2.25,4.95-1.216.2-2.616-1.744-1.407-6.392h0a27.975,27.975,0,0,1,53.959,0h0c1.208,4.649-.191,6.593-1.407,6.392-.988-.163-1.6-1.679-2.25-4.95a1.288,1.288,0,1,0-2.508.583,21.485,21.485,0,0,1-2.827,17.14,1.288,1.288,0,1,0,2.188,1.356c1.667-2.888,2.733-4.128,3.72-3.965,1.177.195,1.871,2.346-.475,6.121A27.97,27.97,0,0,1,67.272,95.242Z" transform="translate(0)" fill="#19105f"/></g></svg>