<svg xmlns="http://www.w3.org/2000/svg" width="13.75" height="13.75" viewBox="0 0 13.75 13.75"><path d="M59.346-896.6h5.041v-5.041H59.346Zm2.527,4.346a6.746,6.746,0,0,1-2.684-.535,6.9,6.9,0,0,1-2.184-1.47,6.9,6.9,0,0,1-1.47-2.183A6.742,6.742,0,0,1,55-899.123a6.758,6.758,0,0,1,.535-2.687A6.827,6.827,0,0,1,57-903.988a7.027,7.027,0,0,1,2.182-1.47A6.675,6.675,0,0,1,61.871-906a6.71,6.71,0,0,1,2.69.541,6.946,6.946,0,0,1,2.179,1.467,6.93,6.93,0,0,1,1.469,2.179,6.715,6.715,0,0,1,.541,2.692,6.672,6.672,0,0,1-.542,2.686,7,7,0,0,1-1.47,2.179,6.887,6.887,0,0,1-2.178,1.469A6.724,6.724,0,0,1,61.873-892.25Zm0-1.519a5.152,5.152,0,0,0,3.781-1.557,5.165,5.165,0,0,0,1.559-3.8,5.154,5.154,0,0,0-1.556-3.781,5.164,5.164,0,0,0-3.8-1.559,5.153,5.153,0,0,0-3.781,1.556,5.164,5.164,0,0,0-1.559,3.8,5.152,5.152,0,0,0,1.557,3.781A5.165,5.165,0,0,0,61.875-893.769ZM61.867-899.117Z" transform="translate(-55 906)" opacity="0.5"/></svg>